<svg xmlns="http://www.w3.org/2000/svg" viewBox="0 0 245 240">
  <path fill="#5865F2" d="M104.4 103.9c-5.7 0-10.2 5-10.2 11.1s4.6 11.1 10.2 11.1c5.7 0 10.2-5 10.2-11.1.1-6.1-4.5-11.1-10.2-11.1zm36.2 0c-5.7 0-10.2 5-10.2 11.1s4.6 11.1 10.2 11.1c5.7 0 10.2-5 10.2-11.1s-4.5-11.1-10.2-11.1z"/>
  <path fill="#5865F2" d="M189.5 20h-134C24.4 20 0 44.4 0 74.5v91C0 195.6 24.4 220 55.5 220h113.1l-5.3-18.4 12.8 11.8 12.1 11.1L245 220c31.1 0 55.5-24.4 55.5-54.5v-91C300.5 44.4 276.1 20 245 20h-55.5zM163 162s-5.3-6.3-9.7-12c19.2-5.4 26.5-17.4 26.5-17.4-6 3.9-11.7 6.6-16.8 8.4-7.3 3.1-14.3 5.1-21.1 6-13.9 2.6-26.6 1.9-37.6-.1-8.3-1.6-15.4-3.8-21.3-6-3.3-1.3-6.9-3-10.5-5.6 0 0 7.1 11.8 25.9 17.3-4.4 5.7-9.8 12.4-9.8 12.4-32.4-1-44.7-22.3-44.7-22.3 0-47.2 21.1-85.5 21.1-85.5 21.1-15.8 41.1-15.3 41.1-15.3l1.5 1.8c-26.4 7.6-38.6 19.1-38.6 19.1s3.2-1.8 8.6-4.4c15.7-6.9 28.2-8.8 33.3-9.2.8-.1 1.5-.2 2.3-.2 8.3-1.1 17.7-1.3 27.5-.3 12.9 1.5 26.8 5.4 40.9 13.3 0 0-11.6-10.9-36.8-18.5l2-2.3s20-.5 41.1 15.3c0 0 21.1 38.3 21.1 85.5 0 0-12.3 21.3-44.7 22.3z"/>
</svg>